<?xml version="1.0" encoding="utf-8"?>
<!-- Generator: Adobe Illustrator 21.0.0, SVG Export Plug-In . SVG Version: 6.00 Build 0)  -->
<svg version="1.1" id="Layer_1" xmlns="http://www.w3.org/2000/svg" xmlns:xlink="http://www.w3.org/1999/xlink" x="0px" y="0px"
	 viewBox="0 0 64 64" style="enable-background:new 0 0 64 64;" xml:space="preserve">
<style type="text/css">
	.st0{fill:#039BE5;stroke:#0277BD;stroke-linecap:round;stroke-linejoin:round;stroke-miterlimit:10;}
	.st1{fill:#81D4FA;stroke:#0277BD;stroke-linecap:round;stroke-linejoin:round;stroke-miterlimit:10;}
	.st2{fill:#EC407A;stroke:#0277BD;stroke-linecap:round;stroke-linejoin:round;stroke-miterlimit:10;}
	.st3{fill:#FFA726;stroke:#0277BD;stroke-linecap:round;stroke-linejoin:round;stroke-miterlimit:10;}
	.st4{fill:#80CBC4;stroke:#0277BD;stroke-linecap:round;stroke-linejoin:round;stroke-miterlimit:10;}
	.st5{fill:none;stroke:#F48FB1;stroke-linecap:round;stroke-linejoin:round;stroke-miterlimit:10;}
	.st6{fill:none;stroke:#FFCC80;stroke-linecap:round;stroke-linejoin:round;stroke-miterlimit:10;}
	.st7{fill:none;stroke:#E0F2F1;stroke-linecap:round;stroke-linejoin:round;stroke-miterlimit:10;}
	.st8{fill:none;stroke:#26A69A;stroke-linecap:round;stroke-linejoin:round;stroke-miterlimit:10;}
	.st9{fill:none;stroke:#F57C00;stroke-linecap:round;stroke-linejoin:round;stroke-miterlimit:10;}
	.st10{fill:none;stroke:#D81B60;stroke-linecap:round;stroke-linejoin:round;stroke-miterlimit:10;}
	.st11{fill:#EEEEEE;stroke:#0277BD;stroke-linecap:round;stroke-linejoin:round;stroke-miterlimit:10;}
	.st12{fill:none;stroke:#BDBDBD;stroke-linecap:round;stroke-linejoin:round;stroke-miterlimit:10;}
	.st13{fill:none;stroke:#E1F5FE;stroke-linecap:round;stroke-linejoin:round;stroke-miterlimit:10;}
	.st14{fill:none;stroke:#FFFFFF;stroke-linecap:round;stroke-linejoin:round;stroke-miterlimit:10;}
	.st15{fill:none;stroke:#29B6F6;stroke-linecap:round;stroke-linejoin:round;stroke-miterlimit:10;}
	.st16{fill:none;stroke:#4FC3F7;stroke-linecap:round;stroke-linejoin:round;stroke-miterlimit:10;}
	.st17{fill:none;stroke:#0277BD;stroke-linecap:round;stroke-linejoin:round;stroke-miterlimit:10;}
</style>
<g id="Free_Shipping">
	<g>
		<path class="st11" d="M59.4,49L26,49V7c0-0.6-0.4-1-1-1h-3c-0.6,0-1,0.4-1,1v44.5c0,1.4,1.1,2.5,2.5,2.5h36c1.5,0,2.6-1.3,2.5-2.8
			C61.9,49.9,60.7,49,59.4,49z"/>
		<path class="st2" d="M27,6H13.5C12.1,6,11,4.9,11,3.5v0C11,2.1,12.1,1,13.5,1H27c0.6,0,1,0.4,1,1v3C28,5.6,27.6,6,27,6z"/>
		<path class="st5" d="M26,4H13.5"/>
		<path class="st12" d="M59.5,52h-36"/>
		<line class="st11" x1="8" y1="26" x2="18" y2="26"/>
		<line class="st11" x1="2" y1="33" x2="18" y2="33"/>
		<line class="st11" x1="8" y1="40" x2="18" y2="40"/>
		<g>
			<path class="st3" d="M58,49H30c-0.6,0-1-0.4-1-1V31h30v17C59,48.6,58.6,49,58,49z"/>
			<path class="st9" d="M31,47h26"/>
			<path class="st6" d="M31,33h26"/>
			<rect x="32" y="41" class="st11" width="6" height="4"/>
			<path class="st2" d="M28,23v7c0,0.6,0.4,1,1,1h30c0.6,0,1-0.4,1-1v-7c0-0.6-0.4-1-1-1H29C28.4,22,28,22.4,28,23z"/>
			<path class="st5" d="M30,24h28"/>
			<path class="st10" d="M30,29h28"/>
		</g>
		<g>
			<g>
				<circle class="st1" cx="32" cy="54" r="9"/>
				<circle class="st11" cx="32" cy="54" r="3"/>
			</g>
			<g>
				<path class="st16" d="M39,54c0,3.9-3.1,7-7,7s-7-3.1-7-7"/>
			</g>
		</g>
	</g>
</g>
</svg>
