<?xml version="1.0" encoding="utf-8"?>
<!-- Generator: Adobe Illustrator 21.0.0, SVG Export Plug-In . SVG Version: 6.00 Build 0)  -->
<svg version="1.1" id="Layer_1" xmlns="http://www.w3.org/2000/svg" xmlns:xlink="http://www.w3.org/1999/xlink" x="0px" y="0px"
	 viewBox="0 0 64 64" style="enable-background:new 0 0 64 64;" xml:space="preserve">
<style type="text/css">
	.st0{fill:#039BE5;stroke:#0277BD;stroke-linecap:round;stroke-linejoin:round;stroke-miterlimit:10;}
	.st1{fill:#81D4FA;stroke:#0277BD;stroke-linecap:round;stroke-linejoin:round;stroke-miterlimit:10;}
	.st2{fill:#EC407A;stroke:#0277BD;stroke-linecap:round;stroke-linejoin:round;stroke-miterlimit:10;}
	.st3{fill:#FFA726;stroke:#0277BD;stroke-linecap:round;stroke-linejoin:round;stroke-miterlimit:10;}
	.st4{fill:#80CBC4;stroke:#0277BD;stroke-linecap:round;stroke-linejoin:round;stroke-miterlimit:10;}
	.st5{fill:none;stroke:#F48FB1;stroke-linecap:round;stroke-linejoin:round;stroke-miterlimit:10;}
	.st6{fill:none;stroke:#FFCC80;stroke-linecap:round;stroke-linejoin:round;stroke-miterlimit:10;}
	.st7{fill:none;stroke:#E0F2F1;stroke-linecap:round;stroke-linejoin:round;stroke-miterlimit:10;}
	.st8{fill:none;stroke:#26A69A;stroke-linecap:round;stroke-linejoin:round;stroke-miterlimit:10;}
	.st9{fill:none;stroke:#F57C00;stroke-linecap:round;stroke-linejoin:round;stroke-miterlimit:10;}
	.st10{fill:none;stroke:#D81B60;stroke-linecap:round;stroke-linejoin:round;stroke-miterlimit:10;}
	.st11{fill:#EEEEEE;stroke:#0277BD;stroke-linecap:round;stroke-linejoin:round;stroke-miterlimit:10;}
	.st12{fill:none;stroke:#BDBDBD;stroke-linecap:round;stroke-linejoin:round;stroke-miterlimit:10;}
	.st13{fill:none;stroke:#E1F5FE;stroke-linecap:round;stroke-linejoin:round;stroke-miterlimit:10;}
	.st14{fill:none;stroke:#FFFFFF;stroke-linecap:round;stroke-linejoin:round;stroke-miterlimit:10;}
	.st15{fill:none;stroke:#29B6F6;stroke-linecap:round;stroke-linejoin:round;stroke-miterlimit:10;}
	.st16{fill:none;stroke:#4FC3F7;stroke-linecap:round;stroke-linejoin:round;stroke-miterlimit:10;}
	.st17{fill:none;stroke:#0277BD;stroke-linecap:round;stroke-linejoin:round;stroke-miterlimit:10;}
</style>
<g id="Breakage">
	<g>
		<path class="st11" d="M57.5,46.5h-54c-1.7,0-3-1.3-3-3V7c0-1.7,1.3-3,3-3h54c1.7,0,3,1.3,3,3v36.5C60.5,45.2,59.2,46.5,57.5,46.5z
			"/>
		<path class="st1" d="M56.5,7c0.5,0,1,0.4,1,0.9v34.6c0,0.5-0.4,0.9-1,0.9H4.5c-0.5,0-1-0.4-1-0.9V7.9c0-0.5,0.4-0.9,1-0.9H56.5z"
			/>
		<path class="st13" d="M5.5,9h50"/>
		<path class="st15" d="M5.5,41.5h50"/>
		<rect x="26" y="46.5" class="st11" width="9" height="9"/>
		<path class="st11" d="M39.5,60h-18c-0.6,0-1-0.4-1-1v-2.5c0-0.6,0.4-1,1-1h18c0.6,0,1,0.4,1,1V59C40.5,59.6,40.1,60,39.5,60z"/>
		<polygon class="st0" points="19.5,7 17,11.6 20.5,17.1 18,27.1 25.5,37.8 22,25.1 26,17.1 23.5,12.1 29,7 		"/>
		<g>
			<path class="st11" d="M62.5,60h-13c-0.6,0-1-0.4-1-1V37c0-0.6,0.4-1,1-1h13c0.6,0,1,0.4,1,1v22C63.5,59.6,63.1,60,62.5,60z"/>
			<rect x="48.5" y="40.5" class="st3" width="15" height="15"/>
			<polygon class="st0" points="57.6,53 56.6,48.5 55.1,46 56.1,43.5 55.1,40.5 51,40.5 53.3,44 52.5,47 54.8,49 			"/>
			<circle class="st11" cx="56" cy="57.8" r="1.5"/>
			<line class="st11" x1="54.5" y1="38.2" x2="57.5" y2="38.2"/>
		</g>
		<line class="st12" x1="22.5" y1="58" x2="38.5" y2="58"/>
	</g>
</g>
</svg>
